<svg width="139" height="34" viewBox="0 0 139 34" fill="none" xmlns="http://www.w3.org/2000/svg">
<path d="M14.5689 16.2617V17.7734C14.5689 17.9727 14.4927 18.1484 14.3403 18.3008C14.1997 18.4414 14.0298 18.5117 13.8306 18.5117H12.3364C12.1372 18.5117 11.9614 18.4414 11.8091 18.3008C11.6685 18.1484 11.5982 17.9727 11.5982 17.7734V16.2617C11.5982 16.0508 11.6685 15.875 11.8091 15.7344C11.9614 15.582 12.1372 15.5059 12.3364 15.5059H13.8306C14.0298 15.5059 14.1997 15.582 14.3403 15.7344C14.4927 15.875 14.5689 16.0508 14.5689 16.2617ZM3.35401 12.5176V14.0293C3.35401 14.2285 3.27784 14.4043 3.1255 14.5566C2.98487 14.6973 2.81495 14.7676 2.61573 14.7676H1.12159C0.922371 14.7676 0.74659 14.6973 0.594246 14.5566C0.453621 14.4043 0.383308 14.2285 0.383308 14.0293V12.5176C0.383308 12.3066 0.453621 12.1309 0.594246 11.9902C0.74659 11.8379 0.922371 11.7617 1.12159 11.7617H2.61573C2.81495 11.7617 2.98487 11.8379 3.1255 11.9902C3.27784 12.1309 3.35401 12.3066 3.35401 12.5176ZM7.09815 12.5176V14.0293C7.09815 14.2285 7.02198 14.4043 6.86964 14.5566C6.72901 14.6973 6.55909 14.7676 6.35987 14.7676H4.86573C4.66651 14.7676 4.49073 14.6973 4.33839 14.5566C4.19776 14.4043 4.12745 14.2285 4.12745 14.0293V12.5176C4.12745 12.3066 4.19776 12.1309 4.33839 11.9902C4.49073 11.8379 4.66651 11.7617 4.86573 11.7617H6.35987C6.55909 11.7617 6.72901 11.8379 6.86964 11.9902C7.02198 12.1309 7.09815 12.3066 7.09815 12.5176ZM14.5689 12.5176V14.0293C14.5689 14.2285 14.4927 14.4043 14.3403 14.5566C14.1997 14.6973 14.0298 14.7676 13.8306 14.7676H12.3364C12.1372 14.7676 11.9614 14.6973 11.8091 14.5566C11.6685 14.4043 11.5982 14.2285 11.5982 14.0293V12.5176C11.5982 12.3066 11.6685 12.1309 11.8091 11.9902C11.9614 11.8379 12.1372 11.7617 12.3364 11.7617H13.8306C14.0298 11.7617 14.1997 11.8379 14.3403 11.9902C14.4927 12.1309 14.5689 12.3066 14.5689 12.5176ZM10.8423 12.5176V14.0293C10.8423 14.2285 10.7661 14.4043 10.6138 14.5566C10.4732 14.6973 10.3032 14.7676 10.104 14.7676H8.60987C8.41065 14.7676 8.23487 14.6973 8.08253 14.5566C7.9419 14.4043 7.87159 14.2285 7.87159 14.0293V12.5176C7.87159 12.3066 7.9419 12.1309 8.08253 11.9902C8.23487 11.8379 8.41065 11.7617 8.60987 11.7617H10.104C10.3032 11.7617 10.4732 11.8379 10.6138 11.9902C10.7661 12.1309 10.8423 12.3066 10.8423 12.5176ZM3.35401 5.01172V6.52344C3.35401 6.73438 3.27784 6.91602 3.1255 7.06836C2.98487 7.20898 2.81495 7.2793 2.61573 7.2793H1.12159C0.922371 7.2793 0.74659 7.20898 0.594246 7.06836C0.453621 6.91602 0.383308 6.73438 0.383308 6.52344V5.01172C0.383308 4.8125 0.453621 4.64258 0.594246 4.50195C0.74659 4.34961 0.922371 4.27344 1.12159 4.27344H2.61573C2.81495 4.27344 2.98487 4.34961 3.1255 4.50195C3.27784 4.64258 3.35401 4.8125 3.35401 5.01172ZM3.35401 8.75586V10.2676C3.35401 10.4785 3.27784 10.6602 3.1255 10.8125C2.98487 10.9531 2.81495 11.0234 2.61573 11.0234H1.12159C0.922371 11.0234 0.74659 10.9531 0.594246 10.8125C0.453621 10.6602 0.383308 10.4785 0.383308 10.2676V8.75586C0.383308 8.55664 0.453621 8.38672 0.594246 8.24609C0.74659 8.09375 0.922371 8.01758 1.12159 8.01758H2.61573C2.81495 8.01758 2.98487 8.09375 3.1255 8.24609C3.27784 8.38672 3.35401 8.55664 3.35401 8.75586ZM3.35401 1.26758V2.7793C3.35401 2.99023 3.27784 3.17187 3.1255 3.32422C2.98487 3.46484 2.81495 3.53516 2.61573 3.53516H1.12159C0.922371 3.53516 0.74659 3.46484 0.594246 3.32422C0.453621 3.17187 0.383308 2.99023 0.383308 2.7793V1.26758C0.383308 1.06836 0.453621 0.898438 0.594246 0.757812C0.74659 0.605469 0.922371 0.529297 1.12159 0.529297H2.61573C2.81495 0.529297 2.98487 0.605469 3.1255 0.757812C3.27784 0.898438 3.35401 1.06836 3.35401 1.26758ZM7.09815 1.26758V2.7793C7.09815 2.99023 7.02198 3.17187 6.86964 3.32422C6.72901 3.46484 6.55909 3.53516 6.35987 3.53516H4.86573C4.66651 3.53516 4.49073 3.46484 4.33839 3.32422C4.19776 3.17187 4.12745 2.99023 4.12745 2.7793V1.26758C4.12745 1.06836 4.19776 0.898438 4.33839 0.757812C4.49073 0.605469 4.66651 0.529297 4.86573 0.529297H6.35987C6.55909 0.529297 6.72901 0.605469 6.86964 0.757812C7.02198 0.898438 7.09815 1.06836 7.09815 1.26758ZM14.5689 1.26758V2.7793C14.5689 2.99023 14.4927 3.17187 14.3403 3.32422C14.1997 3.46484 14.0298 3.53516 13.8306 3.53516H12.3364C12.1372 3.53516 11.9614 3.46484 11.8091 3.32422C11.6685 3.17187 11.5982 2.99023 11.5982 2.7793V1.26758C11.5982 1.06836 11.6685 0.898438 11.8091 0.757812C11.9614 0.605469 12.1372 0.529297 12.3364 0.529297H13.8306C14.0298 0.529297 14.1997 0.605469 14.3403 0.757812C14.4927 0.898438 14.5689 1.06836 14.5689 1.26758ZM10.8423 1.26758V2.7793C10.8423 2.99023 10.7661 3.17187 10.6138 3.32422C10.4732 3.46484 10.3032 3.53516 10.104 3.53516H8.60987C8.41065 3.53516 8.23487 3.46484 8.08253 3.32422C7.9419 3.17187 7.87159 2.99023 7.87159 2.7793V1.26758C7.87159 1.06836 7.9419 0.898438 8.08253 0.757812C8.23487 0.605469 8.41065 0.529297 8.60987 0.529297H10.104C10.3032 0.529297 10.4732 0.605469 10.6138 0.757812C10.7661 0.898438 10.8423 1.06836 10.8423 1.26758ZM14.5689 20.0059V21.5176C14.5689 21.7168 14.4927 21.8926 14.3403 22.0449C14.1997 22.1855 14.0298 22.2559 13.8306 22.2559H12.3364C12.1372 22.2559 11.9614 22.1855 11.8091 22.0449C11.6685 21.8926 11.5982 21.7168 11.5982 21.5176V20.0059C11.5982 19.7949 11.6685 19.6191 11.8091 19.4785C11.9614 19.3262 12.1372 19.25 12.3364 19.25H13.8306C14.0298 19.25 14.1997 19.3262 14.3403 19.4785C14.4927 19.6191 14.5689 19.7949 14.5689 20.0059ZM3.35401 23.75V25.2617C3.35401 25.4609 3.27784 25.6367 3.1255 25.7891C2.98487 25.9297 2.81495 26 2.61573 26H1.12159C0.922371 26 0.74659 25.9297 0.594246 25.7891C0.453621 25.6367 0.383308 25.4609 0.383308 25.2617V23.75C0.383308 23.5391 0.453621 23.3633 0.594246 23.2227C0.74659 23.082 0.922371 23.0117 1.12159 23.0117H2.61573C2.81495 23.0117 2.98487 23.082 3.1255 23.2227C3.27784 23.3633 3.35401 23.5391 3.35401 23.75ZM7.09815 23.75V25.2617C7.09815 25.4609 7.02198 25.6367 6.86964 25.7891C6.72901 25.9297 6.55909 26 6.35987 26H4.86573C4.66651 26 4.49073 25.9297 4.33839 25.7891C4.19776 25.6367 4.12745 25.4609 4.12745 25.2617V23.75C4.12745 23.5391 4.19776 23.3633 4.33839 23.2227C4.49073 23.082 4.66651 23.0117 4.86573 23.0117H6.35987C6.55909 23.0117 6.72901 23.082 6.86964 23.2227C7.02198 23.3633 7.09815 23.5391 7.09815 23.75ZM14.5689 23.75V25.2617C14.5689 25.4609 14.4927 25.6367 14.3403 25.7891C14.1997 25.9297 14.0298 26 13.8306 26H12.3364C12.1372 26 11.9614 25.9297 11.8091 25.7891C11.6685 25.6367 11.5982 25.4609 11.5982 25.2617V23.75C11.5982 23.5391 11.6685 23.3633 11.8091 23.2227C11.9614 23.082 12.1372 23.0117 12.3364 23.0117H13.8306C14.0298 23.0117 14.1997 23.082 14.3403 23.2227C14.4927 23.3633 14.5689 23.5391 14.5689 23.75ZM10.8423 23.75V25.2617C10.8423 25.4609 10.7661 25.6367 10.6138 25.7891C10.4732 25.9297 10.3032 26 10.104 26H8.60987C8.41065 26 8.23487 25.9297 8.08253 25.7891C7.9419 25.6367 7.87159 25.4609 7.87159 25.2617V23.75C7.87159 23.5391 7.9419 23.3633 8.08253 23.2227C8.23487 23.082 8.41065 23.0117 8.60987 23.0117H10.104C10.3032 23.0117 10.4732 23.082 10.6138 23.2227C10.7661 23.3633 10.8423 23.5391 10.8423 23.75ZM28.3677 16.2617V17.7734C28.3677 17.9727 28.2915 18.1484 28.1392 18.3008C27.9985 18.4414 27.8228 18.5117 27.6118 18.5117H26.1353C25.9243 18.5117 25.7485 18.4414 25.6079 18.3008C25.4673 18.1484 25.397 17.9727 25.397 17.7734V16.2617C25.397 16.0508 25.4673 15.875 25.6079 15.7344C25.7485 15.582 25.9243 15.5059 26.1353 15.5059H27.6118C27.8228 15.5059 27.9985 15.582 28.1392 15.7344C28.2915 15.875 28.3677 16.0508 28.3677 16.2617ZM28.3677 12.5176V14.0293C28.3677 14.2285 28.2915 14.4043 28.1392 14.5566C27.9985 14.6973 27.8228 14.7676 27.6118 14.7676H26.1353C25.9243 14.7676 25.7485 14.6973 25.6079 14.5566C25.4673 14.4043 25.397 14.2285 25.397 14.0293V12.5176C25.397 12.3066 25.4673 12.1309 25.6079 11.9902C25.7485 11.8379 25.9243 11.7617 26.1353 11.7617H27.6118C27.8228 11.7617 27.9985 11.8379 28.1392 11.9902C28.2915 12.1309 28.3677 12.3066 28.3677 12.5176ZM28.3677 8.75586V10.2676C28.3677 10.4785 28.2915 10.6602 28.1392 10.8125C27.9985 10.9531 27.8228 11.0234 27.6118 11.0234H26.1353C25.9243 11.0234 25.7485 10.9531 25.6079 10.8125C25.4673 10.6602 25.397 10.4785 25.397 10.2676V8.75586C25.397 8.55664 25.4673 8.38672 25.6079 8.24609C25.7485 8.09375 25.9243 8.01758 26.1353 8.01758H27.6118C27.8228 8.01758 27.9985 8.09375 28.1392 8.24609C28.2915 8.38672 28.3677 8.55664 28.3677 8.75586ZM28.3677 20.0059V21.5176C28.3677 21.7168 28.2915 21.8926 28.1392 22.0449C27.9985 22.1855 27.8228 22.2559 27.6118 22.2559H26.1353C25.9243 22.2559 25.7485 22.1855 25.6079 22.0449C25.4673 21.8926 25.397 21.7168 25.397 21.5176V20.0059C25.397 19.7949 25.4673 19.6191 25.6079 19.4785C25.7485 19.3262 25.9243 19.25 26.1353 19.25H27.6118C27.8228 19.25 27.9985 19.3262 28.1392 19.4785C28.2915 19.6191 28.3677 19.7949 28.3677 20.0059ZM28.3677 23.75V25.2617C28.3677 25.4609 28.2915 25.6367 28.1392 25.7891C27.9985 25.9297 27.8228 26 27.6118 26H26.1353C25.9243 26 25.7485 25.9297 25.6079 25.7891C25.4673 25.6367 25.397 25.4609 25.397 25.2617V23.75C25.397 23.5391 25.4673 23.3633 25.6079 23.2227C25.7485 23.082 25.9243 23.0117 26.1353 23.0117H27.6118C27.8228 23.0117 27.9985 23.082 28.1392 23.2227C28.2915 23.3633 28.3677 23.5391 28.3677 23.75ZM24.6235 8.75586V10.2676C24.6235 10.4785 24.5474 10.6602 24.395 10.8125C24.2544 10.9531 24.0786 11.0234 23.8677 11.0234H22.3911C22.1802 11.0234 22.0044 10.9531 21.8638 10.8125C21.7232 10.6602 21.6528 10.4785 21.6528 10.2676V8.75586C21.6528 8.55664 21.7232 8.38672 21.8638 8.24609C22.0044 8.09375 22.1802 8.01758 22.3911 8.01758H23.8677C24.0786 8.01758 24.2544 8.09375 24.395 8.24609C24.5474 8.38672 24.6235 8.55664 24.6235 8.75586ZM24.6235 23.75V25.2617C24.6235 25.4609 24.5474 25.6367 24.395 25.7891C24.2544 25.9297 24.0786 26 23.8677 26H22.3911C22.1802 26 22.0044 25.9297 21.8638 25.7891C21.7232 25.6367 21.6528 25.4609 21.6528 25.2617V23.75C21.6528 23.5391 21.7232 23.3633 21.8638 23.2227C22.0044 23.082 22.1802 23.0117 22.3911 23.0117H23.8677C24.0786 23.0117 24.2544 23.082 24.395 23.2227C24.5474 23.3633 24.6235 23.5391 24.6235 23.75ZM20.897 16.2617V17.7734C20.897 17.9727 20.8208 18.1484 20.6685 18.3008C20.5278 18.4414 20.3579 18.5117 20.1587 18.5117H18.6646C18.4653 18.5117 18.2896 18.4414 18.1372 18.3008C17.9966 18.1484 17.9263 17.9727 17.9263 17.7734V16.2617C17.9263 16.0508 17.9966 15.875 18.1372 15.7344C18.2896 15.582 18.4653 15.5059 18.6646 15.5059H20.1587C20.3579 15.5059 20.5278 15.582 20.6685 15.7344C20.8208 15.875 20.897 16.0508 20.897 16.2617ZM20.897 12.5176V14.0293C20.897 14.2285 20.8208 14.4043 20.6685 14.5566C20.5278 14.6973 20.3579 14.7676 20.1587 14.7676H18.6646C18.4653 14.7676 18.2896 14.6973 18.1372 14.5566C17.9966 14.4043 17.9263 14.2285 17.9263 14.0293V12.5176C17.9263 12.3066 17.9966 12.1309 18.1372 11.9902C18.2896 11.8379 18.4653 11.7617 18.6646 11.7617H20.1587C20.3579 11.7617 20.5278 11.8379 20.6685 11.9902C20.8208 12.1309 20.897 12.3066 20.897 12.5176ZM20.897 8.75586V10.2676C20.897 10.4785 20.8208 10.6602 20.6685 10.8125C20.5278 10.9531 20.3579 11.0234 20.1587 11.0234H18.6646C18.4653 11.0234 18.2896 10.9531 18.1372 10.8125C17.9966 10.6602 17.9263 10.4785 17.9263 10.2676V8.75586C17.9263 8.55664 17.9966 8.38672 18.1372 8.24609C18.2896 8.09375 18.4653 8.01758 18.6646 8.01758H20.1587C20.3579 8.01758 20.5278 8.09375 20.6685 8.24609C20.8208 8.38672 20.897 8.55664 20.897 8.75586ZM20.897 20.0059V21.5176C20.897 21.7168 20.8208 21.8926 20.6685 22.0449C20.5278 22.1855 20.3579 22.2559 20.1587 22.2559H18.6646C18.4653 22.2559 18.2896 22.1855 18.1372 22.0449C17.9966 21.8926 17.9263 21.7168 17.9263 21.5176V20.0059C17.9263 19.7949 17.9966 19.6191 18.1372 19.4785C18.2896 19.3262 18.4653 19.25 18.6646 19.25H20.1587C20.3579 19.25 20.5278 19.3262 20.6685 19.4785C20.8208 19.6191 20.897 19.7949 20.897 20.0059ZM20.897 23.75V25.2617C20.897 25.4609 20.8208 25.6367 20.6685 25.7891C20.5278 25.9297 20.3579 26 20.1587 26H18.6646C18.4653 26 18.2896 25.9297 18.1372 25.7891C17.9966 25.6367 17.9263 25.4609 17.9263 25.2617V23.75C17.9263 23.5391 17.9966 23.3633 18.1372 23.2227C18.2896 23.082 18.4653 23.0117 18.6646 23.0117H20.1587C20.3579 23.0117 20.5278 23.082 20.6685 23.2227C20.8208 23.3633 20.897 23.5391 20.897 23.75ZM31.7075 16.2617C31.7075 16.0508 31.7778 15.875 31.9185 15.7344C32.0708 15.582 32.2466 15.5059 32.4458 15.5059H33.9399C34.1392 15.5059 34.3091 15.582 34.4497 15.7344C34.6021 15.875 34.6782 16.0508 34.6782 16.2617V17.7734C34.6782 17.9727 34.6021 18.1484 34.4497 18.3008C34.3091 18.4414 34.1392 18.5117 33.9399 18.5117H32.4458C32.2466 18.5117 32.0708 18.4414 31.9185 18.3008C31.7778 18.1484 31.7075 17.9727 31.7075 17.7734V16.2617ZM31.7075 12.5176C31.7075 12.3066 31.7778 12.1309 31.9185 11.9902C32.0708 11.8379 32.2466 11.7617 32.4458 11.7617H33.9399C34.1392 11.7617 34.3091 11.8379 34.4497 11.9902C34.6021 12.1309 34.6782 12.3066 34.6782 12.5176V14.0293C34.6782 14.2285 34.6021 14.4043 34.4497 14.5566C34.3091 14.6973 34.1392 14.7676 33.9399 14.7676H32.4458C32.2466 14.7676 32.0708 14.6973 31.9185 14.5566C31.7778 14.4043 31.7075 14.2285 31.7075 14.0293V12.5176ZM31.7075 8.75586C31.7075 8.55664 31.7778 8.38672 31.9185 8.24609C32.0708 8.09375 32.2466 8.01758 32.4458 8.01758H33.9399C34.1392 8.01758 34.3091 8.09375 34.4497 8.24609C34.6021 8.38672 34.6782 8.55664 34.6782 8.75586V10.2676C34.6782 10.4785 34.6021 10.6602 34.4497 10.8125C34.3091 10.9531 34.1392 11.0234 33.9399 11.0234H32.4458C32.2466 11.0234 32.0708 10.9531 31.9185 10.8125C31.7778 10.6602 31.7075 10.4785 31.7075 10.2676V8.75586ZM31.7075 20.0059C31.7075 19.7949 31.7778 19.6191 31.9185 19.4785C32.0708 19.3262 32.2466 19.25 32.4458 19.25H33.9399C34.1392 19.25 34.3091 19.3262 34.4497 19.4785C34.6021 19.6191 34.6782 19.7949 34.6782 20.0059V21.5176C34.6782 21.7168 34.6021 21.8926 34.4497 22.0449C34.3091 22.1855 34.1392 22.2559 33.9399 22.2559H32.4458C32.2466 22.2559 32.0708 22.1855 31.9185 22.0449C31.7778 21.8926 31.7075 21.7168 31.7075 21.5176V20.0059ZM31.7075 23.75C31.7075 23.5391 31.7778 23.3633 31.9185 23.2227C32.0708 23.082 32.2466 23.0117 32.4458 23.0117H33.9399C34.1392 23.0117 34.3091 23.082 34.4497 23.2227C34.6021 23.3633 34.6782 23.5391 34.6782 23.75V25.2617C34.6782 25.4609 34.6021 25.6367 34.4497 25.7891C34.3091 25.9297 34.1392 26 33.9399 26H32.4458C32.2466 26 32.0708 25.9297 31.9185 25.7891C31.7778 25.6367 31.7075 25.4609 31.7075 25.2617V23.75ZM35.4517 23.75C35.4517 23.5391 35.522 23.3633 35.6626 23.2227C35.8149 23.082 35.9907 23.0117 36.1899 23.0117H37.6841C37.8833 23.0117 38.0532 23.082 38.1939 23.2227C38.3462 23.3633 38.4224 23.5391 38.4224 23.75V25.2617C38.4224 25.4609 38.3462 25.6367 38.1939 25.7891C38.0532 25.9297 37.8833 26 37.6841 26H36.1899C35.9907 26 35.8149 25.9297 35.6626 25.7891C35.522 25.6367 35.4517 25.4609 35.4517 25.2617V23.75ZM39.1782 16.2617C39.1782 16.0508 39.2485 15.875 39.3892 15.7344C39.5298 15.582 39.7056 15.5059 39.9165 15.5059H41.3931C41.604 15.5059 41.7798 15.582 41.9204 15.7344C42.0728 15.875 42.1489 16.0508 42.1489 16.2617V17.7734C42.1489 17.9727 42.0728 18.1484 41.9204 18.3008C41.7798 18.4414 41.604 18.5117 41.3931 18.5117H39.9165C39.7056 18.5117 39.5298 18.4414 39.3892 18.3008C39.2485 18.1484 39.1782 17.9727 39.1782 17.7734V16.2617ZM39.1782 12.5176C39.1782 12.3066 39.2485 12.1309 39.3892 11.9902C39.5298 11.8379 39.7056 11.7617 39.9165 11.7617H41.3931C41.604 11.7617 41.7798 11.8379 41.9204 11.9902C42.0728 12.1309 42.1489 12.3066 42.1489 12.5176V14.0293C42.1489 14.2285 42.0728 14.4043 41.9204 14.5566C41.7798 14.6973 41.604 14.7676 41.3931 14.7676H39.9165C39.7056 14.7676 39.5298 14.6973 39.3892 14.5566C39.2485 14.4043 39.1782 14.2285 39.1782 14.0293V12.5176ZM39.1782 8.75586C39.1782 8.55664 39.2485 8.38672 39.3892 8.24609C39.5298 8.09375 39.7056 8.01758 39.9165 8.01758H41.3931C41.604 8.01758 41.7798 8.09375 41.9204 8.24609C42.0728 8.38672 42.1489 8.55664 42.1489 8.75586V10.2676C42.1489 10.4785 42.0728 10.6602 41.9204 10.8125C41.7798 10.9531 41.604 11.0234 41.3931 11.0234H39.9165C39.7056 11.0234 39.5298 10.9531 39.3892 10.8125C39.2485 10.6602 39.1782 10.4785 39.1782 10.2676V8.75586ZM39.1782 20.0059C39.1782 19.7949 39.2485 19.6191 39.3892 19.4785C39.5298 19.3262 39.7056 19.25 39.9165 19.25H41.3931C41.604 19.25 41.7798 19.3262 41.9204 19.4785C42.0728 19.6191 42.1489 19.7949 42.1489 20.0059V21.5176C42.1489 21.7168 42.0728 21.8926 41.9204 22.0449C41.7798 22.1855 41.604 22.2559 41.3931 22.2559H39.9165C39.7056 22.2559 39.5298 22.1855 39.3892 22.0449C39.2485 21.8926 39.1782 21.7168 39.1782 21.5176V20.0059ZM39.1782 23.75C39.1782 23.5391 39.2485 23.3633 39.3892 23.2227C39.5298 23.082 39.7056 23.0117 39.9165 23.0117H41.3931C41.604 23.0117 41.7798 23.082 41.9204 23.2227C42.0728 23.3633 42.1489 23.5391 42.1489 23.75V25.2617C42.1489 25.4609 42.0728 25.6367 41.9204 25.7891C41.7798 25.9297 41.604 26 41.3931 26H39.9165C39.7056 26 39.5298 25.9297 39.3892 25.7891C39.2485 25.6367 39.1782 25.4609 39.1782 25.2617V23.75ZM48.4595 16.2617V17.7734C48.4595 17.9727 48.3833 18.1484 48.231 18.3008C48.0903 18.4414 47.9204 18.5117 47.7212 18.5117H46.2271C46.0278 18.5117 45.8521 18.4414 45.6997 18.3008C45.5591 18.1484 45.4888 17.9727 45.4888 17.7734V16.2617C45.4888 16.0508 45.5591 15.875 45.6997 15.7344C45.8521 15.582 46.0278 15.5059 46.2271 15.5059H47.7212C47.9204 15.5059 48.0903 15.582 48.231 15.7344C48.3833 15.875 48.4595 16.0508 48.4595 16.2617ZM55.9302 16.2617V17.7734C55.9302 17.9727 55.854 18.1484 55.7017 18.3008C55.561 18.4414 55.3853 18.5117 55.1743 18.5117H53.6978C53.4868 18.5117 53.311 18.4414 53.1704 18.3008C53.0298 18.1484 52.9595 17.9727 52.9595 17.7734V16.2617C52.9595 16.0508 53.0298 15.875 53.1704 15.7344C53.311 15.582 53.4868 15.5059 53.6978 15.5059H55.1743C55.3853 15.5059 55.561 15.582 55.7017 15.7344C55.854 15.875 55.9302 16.0508 55.9302 16.2617ZM48.4595 12.5176V14.0293C48.4595 14.2285 48.3833 14.4043 48.231 14.5566C48.0903 14.6973 47.9204 14.7676 47.7212 14.7676H46.2271C46.0278 14.7676 45.8521 14.6973 45.6997 14.5566C45.5591 14.4043 45.4888 14.2285 45.4888 14.0293V12.5176C45.4888 12.3066 45.5591 12.1309 45.6997 11.9902C45.8521 11.8379 46.0278 11.7617 46.2271 11.7617H47.7212C47.9204 11.7617 48.0903 11.8379 48.231 11.9902C48.3833 12.1309 48.4595 12.3066 48.4595 12.5176ZM55.9302 12.5176V14.0293C55.9302 14.2285 55.854 14.4043 55.7017 14.5566C55.561 14.6973 55.3853 14.7676 55.1743 14.7676H53.6978C53.4868 14.7676 53.311 14.6973 53.1704 14.5566C53.0298 14.4043 52.9595 14.2285 52.9595 14.0293V12.5176C52.9595 12.3066 53.0298 12.1309 53.1704 11.9902C53.311 11.8379 53.4868 11.7617 53.6978 11.7617H55.1743C55.3853 11.7617 55.561 11.8379 55.7017 11.9902C55.854 12.1309 55.9302 12.3066 55.9302 12.5176ZM48.4595 8.75586V10.2676C48.4595 10.4785 48.3833 10.6602 48.231 10.8125C48.0903 10.9531 47.9204 11.0234 47.7212 11.0234H46.2271C46.0278 11.0234 45.8521 10.9531 45.6997 10.8125C45.5591 10.6602 45.4888 10.4785 45.4888 10.2676V8.75586C45.4888 8.55664 45.5591 8.38672 45.6997 8.24609C45.8521 8.09375 46.0278 8.01758 46.2271 8.01758H47.7212C47.9204 8.01758 48.0903 8.09375 48.231 8.24609C48.3833 8.38672 48.4595 8.55664 48.4595 8.75586ZM55.9302 8.75586V10.2676C55.9302 10.4785 55.854 10.6602 55.7017 10.8125C55.561 10.9531 55.3853 11.0234 55.1743 11.0234H53.6978C53.4868 11.0234 53.311 10.9531 53.1704 10.8125C53.0298 10.6602 52.9595 10.4785 52.9595 10.2676V8.75586C52.9595 8.55664 53.0298 8.38672 53.1704 8.24609C53.311 8.09375 53.4868 8.01758 53.6978 8.01758H55.1743C55.3853 8.01758 55.561 8.09375 55.7017 8.24609C55.854 8.38672 55.9302 8.55664 55.9302 8.75586ZM48.4595 20.0059V21.5176C48.4595 21.7168 48.3833 21.8926 48.231 22.0449C48.0903 22.1855 47.9204 22.2559 47.7212 22.2559H46.2271C46.0278 22.2559 45.8521 22.1855 45.6997 22.0449C45.5591 21.8926 45.4888 21.7168 45.4888 21.5176V20.0059C45.4888 19.7949 45.5591 19.6191 45.6997 19.4785C45.8521 19.3262 46.0278 19.25 46.2271 19.25H47.7212C47.9204 19.25 48.0903 19.3262 48.231 19.4785C48.3833 19.6191 48.4595 19.7949 48.4595 20.0059ZM55.9302 20.0059V21.5176C55.9302 21.7168 55.854 21.8926 55.7017 22.0449C55.561 22.1855 55.3853 22.2559 55.1743 22.2559H53.6978C53.4868 22.2559 53.311 22.1855 53.1704 22.0449C53.0298 21.8926 52.9595 21.7168 52.9595 21.5176V20.0059C52.9595 19.7949 53.0298 19.6191 53.1704 19.4785C53.311 19.3262 53.4868 19.25 53.6978 19.25H55.1743C55.3853 19.25 55.561 19.3262 55.7017 19.4785C55.854 19.6191 55.9302 19.7949 55.9302 20.0059ZM48.4595 23.75V25.2617C48.4595 25.4609 48.3833 25.6367 48.231 25.7891C48.0903 25.9297 47.9204 26 47.7212 26H46.2271C46.0278 26 45.8521 25.9297 45.6997 25.7891C45.5591 25.6367 45.4888 25.4609 45.4888 25.2617V23.75C45.4888 23.5391 45.5591 23.3633 45.6997 23.2227C45.8521 23.082 46.0278 23.0117 46.2271 23.0117H47.7212C47.9204 23.0117 48.0903 23.082 48.231 23.2227C48.3833 23.3633 48.4595 23.5391 48.4595 23.75ZM55.9302 23.75V25.2617C55.9302 25.4609 55.854 25.6367 55.7017 25.7891C55.561 25.9297 55.3853 26 55.1743 26H53.6978C53.4868 26 53.311 25.9297 53.1704 25.7891C53.0298 25.6367 52.9595 25.4609 52.9595 25.2617V23.75C52.9595 23.5391 53.0298 23.3633 53.1704 23.2227C53.311 23.082 53.4868 23.0117 53.6978 23.0117H55.1743C55.3853 23.0117 55.561 23.082 55.7017 23.2227C55.854 23.3633 55.9302 23.5391 55.9302 23.75ZM52.186 8.75586V10.2676C52.186 10.4785 52.1099 10.6602 51.9575 10.8125C51.8169 10.9531 51.6411 11.0234 51.4302 11.0234H49.9536C49.7427 11.0234 49.5669 10.9531 49.4263 10.8125C49.2857 10.6602 49.2153 10.4785 49.2153 10.2676V8.75586C49.2153 8.55664 49.2857 8.38672 49.4263 8.24609C49.5669 8.09375 49.7427 8.01758 49.9536 8.01758H51.4302C51.6411 8.01758 51.8169 8.09375 51.9575 8.24609C52.1099 8.38672 52.186 8.55664 52.186 8.75586ZM59.27 16.2617C59.27 16.0508 59.3403 15.875 59.481 15.7344C59.6333 15.582 59.8091 15.5059 60.0083 15.5059H61.5024C61.7017 15.5059 61.8716 15.582 62.0122 15.7344C62.1646 15.875 62.2407 16.0508 62.2407 16.2617V17.7734C62.2407 17.9727 62.1646 18.1484 62.0122 18.3008C61.8716 18.4414 61.7017 18.5117 61.5024 18.5117H60.0083C59.8091 18.5117 59.6333 18.4414 59.481 18.3008C59.3403 18.1484 59.27 17.9727 59.27 17.7734V16.2617ZM59.27 12.5176C59.27 12.3066 59.3403 12.1309 59.481 11.9902C59.6333 11.8379 59.8091 11.7617 60.0083 11.7617H61.5024C61.7017 11.7617 61.8716 11.8379 62.0122 11.9902C62.1646 12.1309 62.2407 12.3066 62.2407 12.5176V14.0293C62.2407 14.2285 62.1646 14.4043 62.0122 14.5566C61.8716 14.6973 61.7017 14.7676 61.5024 14.7676H60.0083C59.8091 14.7676 59.6333 14.6973 59.481 14.5566C59.3403 14.4043 59.27 14.2285 59.27 14.0293V12.5176ZM59.27 8.75586C59.27 8.55664 59.3403 8.38672 59.481 8.24609C59.6333 8.09375 59.8091 8.01758 60.0083 8.01758H61.5024C61.7017 8.01758 61.8716 8.09375 62.0122 8.24609C62.1646 8.38672 62.2407 8.55664 62.2407 8.75586V10.2676C62.2407 10.4785 62.1646 10.6602 62.0122 10.8125C61.8716 10.9531 61.7017 11.0234 61.5024 11.0234H60.0083C59.8091 11.0234 59.6333 10.9531 59.481 10.8125C59.3403 10.6602 59.27 10.4785 59.27 10.2676V8.75586ZM59.27 20.0059C59.27 19.7949 59.3403 19.6191 59.481 19.4785C59.6333 19.3262 59.8091 19.25 60.0083 19.25H61.5024C61.7017 19.25 61.8716 19.3262 62.0122 19.4785C62.1646 19.6191 62.2407 19.7949 62.2407 20.0059V21.5176C62.2407 21.7168 62.1646 21.8926 62.0122 22.0449C61.8716 22.1855 61.7017 22.2559 61.5024 22.2559H60.0083C59.8091 22.2559 59.6333 22.1855 59.481 22.0449C59.3403 21.8926 59.27 21.7168 59.27 21.5176V20.0059ZM59.27 23.75C59.27 23.5391 59.3403 23.3633 59.481 23.2227C59.6333 23.082 59.8091 23.0117 60.0083 23.0117H61.5024C61.7017 23.0117 61.8716 23.082 62.0122 23.2227C62.1646 23.3633 62.2407 23.5391 62.2407 23.75V25.2617C62.2407 25.4609 62.1646 25.6367 62.0122 25.7891C61.8716 25.9297 61.7017 26 61.5024 26H60.0083C59.8091 26 59.6333 25.9297 59.481 25.7891C59.3403 25.6367 59.27 25.4609 59.27 25.2617V23.75ZM63.0142 8.75586C63.0142 8.55664 63.0845 8.38672 63.2251 8.24609C63.3774 8.09375 63.5532 8.01758 63.7524 8.01758H65.2466C65.4458 8.01758 65.6157 8.09375 65.7564 8.24609C65.9087 8.38672 65.9849 8.55664 65.9849 8.75586V10.2676C65.9849 10.4785 65.9087 10.6602 65.7564 10.8125C65.6157 10.9531 65.4458 11.0234 65.2466 11.0234H63.7524C63.5532 11.0234 63.3774 10.9531 63.2251 10.8125C63.0845 10.6602 63.0142 10.4785 63.0142 10.2676V8.75586ZM63.0142 23.75C63.0142 23.5391 63.0845 23.3633 63.2251 23.2227C63.3774 23.082 63.5532 23.0117 63.7524 23.0117H65.2466C65.4458 23.0117 65.6157 23.082 65.7564 23.2227C65.9087 23.3633 65.9849 23.5391 65.9849 23.75V25.2617C65.9849 25.4609 65.9087 25.6367 65.7564 25.7891C65.6157 25.9297 65.4458 26 65.2466 26H63.7524C63.5532 26 63.3774 25.9297 63.2251 25.7891C63.0845 25.6367 63.0142 25.4609 63.0142 25.2617V23.75ZM66.7407 16.2617C66.7407 16.0508 66.811 15.875 66.9517 15.7344C67.0923 15.582 67.2681 15.5059 67.479 15.5059H68.9556C69.1665 15.5059 69.3423 15.582 69.4829 15.7344C69.6353 15.875 69.7114 16.0508 69.7114 16.2617V17.7734C69.7114 17.9727 69.6353 18.1484 69.4829 18.3008C69.3423 18.4414 69.1665 18.5117 68.9556 18.5117H67.479C67.2681 18.5117 67.0923 18.4414 66.9517 18.3008C66.811 18.1484 66.7407 17.9727 66.7407 17.7734V16.2617ZM66.7407 12.5176C66.7407 12.3066 66.811 12.1309 66.9517 11.9902C67.0923 11.8379 67.2681 11.7617 67.479 11.7617H68.9556C69.1665 11.7617 69.3423 11.8379 69.4829 11.9902C69.6353 12.1309 69.7114 12.3066 69.7114 12.5176V14.0293C69.7114 14.2285 69.6353 14.4043 69.4829 14.5566C69.3423 14.6973 69.1665 14.7676 68.9556 14.7676H67.479C67.2681 14.7676 67.0923 14.6973 66.9517 14.5566C66.811 14.4043 66.7407 14.2285 66.7407 14.0293V12.5176ZM66.7407 8.75586C66.7407 8.55664 66.811 8.38672 66.9517 8.24609C67.0923 8.09375 67.2681 8.01758 67.479 8.01758H68.9556C69.1665 8.01758 69.3423 8.09375 69.4829 8.24609C69.6353 8.38672 69.7114 8.55664 69.7114 8.75586V10.2676C69.7114 10.4785 69.6353 10.6602 69.4829 10.8125C69.3423 10.9531 69.1665 11.0234 68.9556 11.0234H67.479C67.2681 11.0234 67.0923 10.9531 66.9517 10.8125C66.811 10.6602 66.7407 10.4785 66.7407 10.2676V8.75586ZM66.7407 5.01172C66.7407 4.8125 66.811 4.64258 66.9517 4.50195C67.0923 4.34961 67.2681 4.27344 67.479 4.27344H68.9556C69.1665 4.27344 69.3423 4.34961 69.4829 4.50195C69.6353 4.64258 69.7114 4.8125 69.7114 5.01172V6.52344C69.7114 6.73438 69.6353 6.91602 69.4829 7.06836C69.3423 7.20898 69.1665 7.2793 68.9556 7.2793H67.479C67.2681 7.2793 67.0923 7.20898 66.9517 7.06836C66.811 6.91602 66.7407 6.73438 66.7407 6.52344V5.01172ZM66.7407 1.26758C66.7407 1.06836 66.811 0.898438 66.9517 0.757812C67.0923 0.605469 67.2681 0.529297 67.479 0.529297H68.9556C69.1665 0.529297 69.3423 0.605469 69.4829 0.757812C69.6353 0.898438 69.7114 1.06836 69.7114 1.26758V2.7793C69.7114 2.99023 69.6353 3.17187 69.4829 3.32422C69.3423 3.46484 69.1665 3.53516 68.9556 3.53516H67.479C67.2681 3.53516 67.0923 3.46484 66.9517 3.32422C66.811 3.17187 66.7407 2.99023 66.7407 2.7793V1.26758ZM66.7407 20.0059C66.7407 19.7949 66.811 19.6191 66.9517 19.4785C67.0923 19.3262 67.2681 19.25 67.479 19.25H68.9556C69.1665 19.25 69.3423 19.3262 69.4829 19.4785C69.6353 19.6191 69.7114 19.7949 69.7114 20.0059V21.5176C69.7114 21.7168 69.6353 21.8926 69.4829 22.0449C69.3423 22.1855 69.1665 22.2559 68.9556 22.2559H67.479C67.2681 22.2559 67.0923 22.1855 66.9517 22.0449C66.811 21.8926 66.7407 21.7168 66.7407 21.5176V20.0059ZM66.7407 23.75C66.7407 23.5391 66.811 23.3633 66.9517 23.2227C67.0923 23.082 67.2681 23.0117 67.479 23.0117H68.9556C69.1665 23.0117 69.3423 23.082 69.4829 23.2227C69.6353 23.3633 69.7114 23.5391 69.7114 23.75V25.2617C69.7114 25.4609 69.6353 25.6367 69.4829 25.7891C69.3423 25.9297 69.1665 26 68.9556 26H67.479C67.2681 26 67.0923 25.9297 66.9517 25.7891C66.811 25.6367 66.7407 25.4609 66.7407 25.2617V23.75ZM87.2368 16.2617V17.7734C87.2368 17.9727 87.1607 18.1484 87.0083 18.3008C86.8677 18.4414 86.6978 18.5117 86.4985 18.5117H85.0044C84.8052 18.5117 84.6294 18.4414 84.4771 18.3008C84.3364 18.1484 84.2661 17.9727 84.2661 17.7734V16.2617C84.2661 16.0508 84.3364 15.875 84.4771 15.7344C84.6294 15.582 84.8052 15.5059 85.0044 15.5059H86.4985C86.6978 15.5059 86.8677 15.582 87.0083 15.7344C87.1607 15.875 87.2368 16.0508 87.2368 16.2617ZM76.022 12.5176V14.0293C76.022 14.2285 75.9458 14.4043 75.7935 14.5566C75.6528 14.6973 75.4829 14.7676 75.2837 14.7676H73.7896C73.5903 14.7676 73.4146 14.6973 73.2622 14.5566C73.1216 14.4043 73.0513 14.2285 73.0513 14.0293V12.5176C73.0513 12.3066 73.1216 12.1309 73.2622 11.9902C73.4146 11.8379 73.5903 11.7617 73.7896 11.7617H75.2837C75.4829 11.7617 75.6528 11.8379 75.7935 11.9902C75.9458 12.1309 76.022 12.3066 76.022 12.5176ZM79.7661 12.5176V14.0293C79.7661 14.2285 79.6899 14.4043 79.5376 14.5566C79.397 14.6973 79.2271 14.7676 79.0278 14.7676H77.5337C77.3345 14.7676 77.1587 14.6973 77.0064 14.5566C76.8657 14.4043 76.7954 14.2285 76.7954 14.0293V12.5176C76.7954 12.3066 76.8657 12.1309 77.0064 11.9902C77.1587 11.8379 77.3345 11.7617 77.5337 11.7617H79.0278C79.2271 11.7617 79.397 11.8379 79.5376 11.9902C79.6899 12.1309 79.7661 12.3066 79.7661 12.5176ZM87.2368 12.5176V14.0293C87.2368 14.2285 87.1607 14.4043 87.0083 14.5566C86.8677 14.6973 86.6978 14.7676 86.4985 14.7676H85.0044C84.8052 14.7676 84.6294 14.6973 84.4771 14.5566C84.3364 14.4043 84.2661 14.2285 84.2661 14.0293V12.5176C84.2661 12.3066 84.3364 12.1309 84.4771 11.9902C84.6294 11.8379 84.8052 11.7617 85.0044 11.7617H86.4985C86.6978 11.7617 86.8677 11.8379 87.0083 11.9902C87.1607 12.1309 87.2368 12.3066 87.2368 12.5176ZM83.5103 12.5176V14.0293C83.5103 14.2285 83.4341 14.4043 83.2817 14.5566C83.1411 14.6973 82.9712 14.7676 82.772 14.7676H81.2778C81.0786 14.7676 80.9028 14.6973 80.7505 14.5566C80.6099 14.4043 80.5396 14.2285 80.5396 14.0293V12.5176C80.5396 12.3066 80.6099 12.1309 80.7505 11.9902C80.9028 11.8379 81.0786 11.7617 81.2778 11.7617H82.772C82.9712 11.7617 83.1411 11.8379 83.2817 11.9902C83.4341 12.1309 83.5103 12.3066 83.5103 12.5176ZM76.022 5.01172V6.52344C76.022 6.73438 75.9458 6.91602 75.7935 7.06836C75.6528 7.20898 75.4829 7.2793 75.2837 7.2793H73.7896C73.5903 7.2793 73.4146 7.20898 73.2622 7.06836C73.1216 6.91602 73.0513 6.73438 73.0513 6.52344V5.01172C73.0513 4.8125 73.1216 4.64258 73.2622 4.50195C73.4146 4.34961 73.5903 4.27344 73.7896 4.27344H75.2837C75.4829 4.27344 75.6528 4.34961 75.7935 4.50195C75.9458 4.64258 76.022 4.8125 76.022 5.01172ZM76.022 8.75586V10.2676C76.022 10.4785 75.9458 10.6602 75.7935 10.8125C75.6528 10.9531 75.4829 11.0234 75.2837 11.0234H73.7896C73.5903 11.0234 73.4146 10.9531 73.2622 10.8125C73.1216 10.6602 73.0513 10.4785 73.0513 10.2676V8.75586C73.0513 8.55664 73.1216 8.38672 73.2622 8.24609C73.4146 8.09375 73.5903 8.01758 73.7896 8.01758H75.2837C75.4829 8.01758 75.6528 8.09375 75.7935 8.24609C75.9458 8.38672 76.022 8.55664 76.022 8.75586ZM76.022 1.26758V2.7793C76.022 2.99023 75.9458 3.17187 75.7935 3.32422C75.6528 3.46484 75.4829 3.53516 75.2837 3.53516H73.7896C73.5903 3.53516 73.4146 3.46484 73.2622 3.32422C73.1216 3.17187 73.0513 2.99023 73.0513 2.7793V1.26758C73.0513 1.06836 73.1216 0.898438 73.2622 0.757812C73.4146 0.605469 73.5903 0.529297 73.7896 0.529297H75.2837C75.4829 0.529297 75.6528 0.605469 75.7935 0.757812C75.9458 0.898438 76.022 1.06836 76.022 1.26758ZM79.7661 1.26758V2.7793C79.7661 2.99023 79.6899 3.17187 79.5376 3.32422C79.397 3.46484 79.2271 3.53516 79.0278 3.53516H77.5337C77.3345 3.53516 77.1587 3.46484 77.0064 3.32422C76.8657 3.17187 76.7954 2.99023 76.7954 2.7793V1.26758C76.7954 1.06836 76.8657 0.898438 77.0064 0.757812C77.1587 0.605469 77.3345 0.529297 77.5337 0.529297H79.0278C79.2271 0.529297 79.397 0.605469 79.5376 0.757812C79.6899 0.898438 79.7661 1.06836 79.7661 1.26758ZM87.2368 1.26758V2.7793C87.2368 2.99023 87.1607 3.17187 87.0083 3.32422C86.8677 3.46484 86.6978 3.53516 86.4985 3.53516H85.0044C84.8052 3.53516 84.6294 3.46484 84.4771 3.32422C84.3364 3.17187 84.2661 2.99023 84.2661 2.7793V1.26758C84.2661 1.06836 84.3364 0.898438 84.4771 0.757812C84.6294 0.605469 84.8052 0.529297 85.0044 0.529297H86.4985C86.6978 0.529297 86.8677 0.605469 87.0083 0.757812C87.1607 0.898438 87.2368 1.06836 87.2368 1.26758ZM83.5103 1.26758V2.7793C83.5103 2.99023 83.4341 3.17187 83.2817 3.32422C83.1411 3.46484 82.9712 3.53516 82.772 3.53516H81.2778C81.0786 3.53516 80.9028 3.46484 80.7505 3.32422C80.6099 3.17187 80.5396 2.99023 80.5396 2.7793V1.26758C80.5396 1.06836 80.6099 0.898438 80.7505 0.757812C80.9028 0.605469 81.0786 0.529297 81.2778 0.529297H82.772C82.9712 0.529297 83.1411 0.605469 83.2817 0.757812C83.4341 0.898438 83.5103 1.06836 83.5103 1.26758ZM87.2368 20.0059V21.5176C87.2368 21.7168 87.1607 21.8926 87.0083 22.0449C86.8677 22.1855 86.6978 22.2559 86.4985 22.2559H85.0044C84.8052 22.2559 84.6294 22.1855 84.4771 22.0449C84.3364 21.8926 84.2661 21.7168 84.2661 21.5176V20.0059C84.2661 19.7949 84.3364 19.6191 84.4771 19.4785C84.6294 19.3262 84.8052 19.25 85.0044 19.25H86.4985C86.6978 19.25 86.8677 19.3262 87.0083 19.4785C87.1607 19.6191 87.2368 19.7949 87.2368 20.0059ZM76.022 23.75V25.2617C76.022 25.4609 75.9458 25.6367 75.7935 25.7891C75.6528 25.9297 75.4829 26 75.2837 26H73.7896C73.5903 26 73.4146 25.9297 73.2622 25.7891C73.1216 25.6367 73.0513 25.4609 73.0513 25.2617V23.75C73.0513 23.5391 73.1216 23.3633 73.2622 23.2227C73.4146 23.082 73.5903 23.0117 73.7896 23.0117H75.2837C75.4829 23.0117 75.6528 23.082 75.7935 23.2227C75.9458 23.3633 76.022 23.5391 76.022 23.75ZM79.7661 23.75V25.2617C79.7661 25.4609 79.6899 25.6367 79.5376 25.7891C79.397 25.9297 79.2271 26 79.0278 26H77.5337C77.3345 26 77.1587 25.9297 77.0064 25.7891C76.8657 25.6367 76.7954 25.4609 76.7954 25.2617V23.75C76.7954 23.5391 76.8657 23.3633 77.0064 23.2227C77.1587 23.082 77.3345 23.0117 77.5337 23.0117H79.0278C79.2271 23.0117 79.397 23.082 79.5376 23.2227C79.6899 23.3633 79.7661 23.5391 79.7661 23.75ZM87.2368 23.75V25.2617C87.2368 25.4609 87.1607 25.6367 87.0083 25.7891C86.8677 25.9297 86.6978 26 86.4985 26H85.0044C84.8052 26 84.6294 25.9297 84.4771 25.7891C84.3364 25.6367 84.2661 25.4609 84.2661 25.2617V23.75C84.2661 23.5391 84.3364 23.3633 84.4771 23.2227C84.6294 23.082 84.8052 23.0117 85.0044 23.0117H86.4985C86.6978 23.0117 86.8677 23.082 87.0083 23.2227C87.1607 23.3633 87.2368 23.5391 87.2368 23.75ZM83.5103 23.75V25.2617C83.5103 25.4609 83.4341 25.6367 83.2817 25.7891C83.1411 25.9297 82.9712 26 82.772 26H81.2778C81.0786 26 80.9028 25.9297 80.7505 25.7891C80.6099 25.6367 80.5396 25.4609 80.5396 25.2617V23.75C80.5396 23.5391 80.6099 23.3633 80.7505 23.2227C80.9028 23.082 81.0786 23.0117 81.2778 23.0117H82.772C82.9712 23.0117 83.1411 23.082 83.2817 23.2227C83.4341 23.3633 83.5103 23.5391 83.5103 23.75ZM93.5649 16.2617V17.7734C93.5649 17.9727 93.4888 18.1484 93.3364 18.3008C93.1958 18.4414 93.0259 18.5117 92.8267 18.5117H91.3325C91.1333 18.5117 90.9575 18.4414 90.8052 18.3008C90.6646 18.1484 90.5942 17.9727 90.5942 17.7734V16.2617C90.5942 16.0508 90.6646 15.875 90.8052 15.7344C90.9575 15.582 91.1333 15.5059 91.3325 15.5059H92.8267C93.0259 15.5059 93.1958 15.582 93.3364 15.7344C93.4888 15.875 93.5649 16.0508 93.5649 16.2617ZM93.5649 12.5176V14.0293C93.5649 14.2285 93.4888 14.4043 93.3364 14.5566C93.1958 14.6973 93.0259 14.7676 92.8267 14.7676H91.3325C91.1333 14.7676 90.9575 14.6973 90.8052 14.5566C90.6646 14.4043 90.5942 14.2285 90.5942 14.0293V12.5176C90.5942 12.3066 90.6646 12.1309 90.8052 11.9902C90.9575 11.8379 91.1333 11.7617 91.3325 11.7617H92.8267C93.0259 11.7617 93.1958 11.8379 93.3364 11.9902C93.4888 12.1309 93.5649 12.3066 93.5649 12.5176ZM93.5649 8.75586V10.2676C93.5649 10.4785 93.4888 10.6602 93.3364 10.8125C93.1958 10.9531 93.0259 11.0234 92.8267 11.0234H91.3325C91.1333 11.0234 90.9575 10.9531 90.8052 10.8125C90.6646 10.6602 90.5942 10.4785 90.5942 10.2676V8.75586C90.5942 8.55664 90.6646 8.38672 90.8052 8.24609C90.9575 8.09375 91.1333 8.01758 91.3325 8.01758H92.8267C93.0259 8.01758 93.1958 8.09375 93.3364 8.24609C93.4888 8.38672 93.5649 8.55664 93.5649 8.75586ZM93.5649 3.88672V5.39844C93.5649 5.60938 93.4888 5.79102 93.3364 5.94336C93.1958 6.08398 93.0259 6.1543 92.8267 6.1543H91.3325C91.1333 6.1543 90.9575 6.08398 90.8052 5.94336C90.6646 5.79102 90.5942 5.60938 90.5942 5.39844V3.88672C90.5942 3.6875 90.6646 3.51758 90.8052 3.37695C90.9575 3.22461 91.1333 3.14844 91.3325 3.14844H92.8267C93.0259 3.14844 93.1958 3.22461 93.3364 3.37695C93.4888 3.51758 93.5649 3.6875 93.5649 3.88672ZM93.5649 20.0059V21.5176C93.5649 21.7168 93.4888 21.8926 93.3364 22.0449C93.1958 22.1855 93.0259 22.2559 92.8267 22.2559H91.3325C91.1333 22.2559 90.9575 22.1855 90.8052 22.0449C90.6646 21.8926 90.5942 21.7168 90.5942 21.5176V20.0059C90.5942 19.7949 90.6646 19.6191 90.8052 19.4785C90.9575 19.3262 91.1333 19.25 91.3325 19.25H92.8267C93.0259 19.25 93.1958 19.3262 93.3364 19.4785C93.4888 19.6191 93.5649 19.7949 93.5649 20.0059ZM93.5649 23.75V25.2617C93.5649 25.4609 93.4888 25.6367 93.3364 25.7891C93.1958 25.9297 93.0259 26 92.8267 26H91.3325C91.1333 26 90.9575 25.9297 90.8052 25.7891C90.6646 25.6367 90.5942 25.4609 90.5942 25.2617V23.75C90.5942 23.5391 90.6646 23.3633 90.8052 23.2227C90.9575 23.082 91.1333 23.0117 91.3325 23.0117H92.8267C93.0259 23.0117 93.1958 23.082 93.3364 23.2227C93.4888 23.3633 93.5649 23.5391 93.5649 23.75ZM96.9224 17.7559V16.2441C96.9224 16.0449 96.9927 15.875 97.1333 15.7344C97.2857 15.582 97.4614 15.5059 97.6607 15.5059H99.1548C99.354 15.5059 99.5239 15.582 99.6646 15.7344C99.8169 15.875 99.8931 16.0449 99.8931 16.2441V17.7559C99.8931 17.9668 99.8169 18.1484 99.6646 18.3008C99.5239 18.4414 99.354 18.5117 99.1548 18.5117H97.6607C97.4614 18.5117 97.2857 18.4414 97.1333 18.3008C96.9927 18.1484 96.9224 17.9668 96.9224 17.7559ZM96.9224 21.5176V20.0059C96.9224 19.7949 96.9927 19.6191 97.1333 19.4785C97.2857 19.3262 97.4614 19.25 97.6607 19.25H99.1548C99.354 19.25 99.5239 19.3262 99.6646 19.4785C99.8169 19.6191 99.8931 19.7949 99.8931 20.0059V21.5176C99.8931 21.7168 99.8169 21.8926 99.6646 22.0449C99.5239 22.1855 99.354 22.2559 99.1548 22.2559H97.6607C97.4614 22.2559 97.2857 22.1855 97.1333 22.0449C96.9927 21.8926 96.9224 21.7168 96.9224 21.5176ZM96.9224 25.2617V23.75C96.9224 23.5391 96.9927 23.3633 97.1333 23.2227C97.2857 23.0703 97.4614 22.9941 97.6607 22.9941H99.1548C99.354 22.9941 99.5239 23.0703 99.6646 23.2227C99.8169 23.3633 99.8931 23.5391 99.8931 23.75V25.2617C99.8931 25.4609 99.8169 25.6367 99.6646 25.7891C99.5239 25.9297 99.354 26 99.1548 26H97.6607C97.4614 26 97.2857 25.9297 97.1333 25.7891C96.9927 25.6367 96.9224 25.4609 96.9224 25.2617ZM96.9224 14.0117V12.5C96.9224 12.3008 96.9927 12.1309 97.1333 11.9902C97.2857 11.8379 97.4614 11.7617 97.6607 11.7617H99.1548C99.354 11.7617 99.5239 11.8379 99.6646 11.9902C99.8169 12.1309 99.8931 12.3008 99.8931 12.5V14.0117C99.8931 14.2227 99.8169 14.4043 99.6646 14.5566C99.5239 14.6973 99.354 14.7676 99.1548 14.7676H97.6607C97.4614 14.7676 97.2857 14.6973 97.1333 14.5566C96.9927 14.4043 96.9224 14.2227 96.9224 14.0117ZM96.9224 10.2676V8.75586C96.9224 8.55664 96.9927 8.38672 97.1333 8.24609C97.2857 8.09375 97.4614 8.01758 97.6607 8.01758H99.1548C99.354 8.01758 99.5239 8.09375 99.6646 8.24609C99.8169 8.38672 99.8931 8.55664 99.8931 8.75586V10.2676C99.8931 10.4785 99.8169 10.6602 99.6646 10.8125C99.5239 10.9531 99.354 11.0234 99.1548 11.0234H97.6607C97.4614 11.0234 97.2857 10.9531 97.1333 10.8125C96.9927 10.6602 96.9224 10.4785 96.9224 10.2676ZM100.667 25.2617V23.75C100.667 23.5391 100.737 23.3633 100.877 23.2227C101.03 23.0703 101.206 22.9941 101.405 22.9941H102.899C103.098 22.9941 103.268 23.0703 103.409 23.2227C103.561 23.3633 103.637 23.5391 103.637 23.75V25.2617C103.637 25.4609 103.561 25.6367 103.409 25.7891C103.268 25.9297 103.098 26 102.899 26H101.405C101.206 26 101.03 25.9297 100.877 25.7891C100.737 25.6367 100.667 25.4609 100.667 25.2617ZM100.667 10.2676V8.75586C100.667 8.55664 100.737 8.38672 100.877 8.24609C101.03 8.09375 101.206 8.01758 101.405 8.01758H102.899C103.098 8.01758 103.268 8.09375 103.409 8.24609C103.561 8.38672 103.637 8.55664 103.637 8.75586V10.2676C103.637 10.4785 103.561 10.6602 103.409 10.8125C103.268 10.9531 103.098 11.0234 102.899 11.0234H101.405C101.206 11.0234 101.03 10.9531 100.877 10.8125C100.737 10.6602 100.667 10.4785 100.667 10.2676ZM104.393 17.7559V16.2441C104.393 16.0449 104.463 15.875 104.604 15.7344C104.745 15.582 104.92 15.5059 105.131 15.5059H106.608C106.819 15.5059 106.995 15.582 107.135 15.7344C107.288 15.875 107.364 16.0449 107.364 16.2441V17.7559C107.364 17.9668 107.288 18.1484 107.135 18.3008C106.995 18.4414 106.819 18.5117 106.608 18.5117H105.131C104.92 18.5117 104.745 18.4414 104.604 18.3008C104.463 18.1484 104.393 17.9668 104.393 17.7559ZM104.393 21.5176V20.0059C104.393 19.7949 104.463 19.6191 104.604 19.4785C104.745 19.3262 104.92 19.25 105.131 19.25H106.608C106.819 19.25 106.995 19.3262 107.135 19.4785C107.288 19.6191 107.364 19.7949 107.364 20.0059V21.5176C107.364 21.7168 107.288 21.8926 107.135 22.0449C106.995 22.1855 106.819 22.2559 106.608 22.2559H105.131C104.92 22.2559 104.745 22.1855 104.604 22.0449C104.463 21.8926 104.393 21.7168 104.393 21.5176ZM104.393 25.2617V23.75C104.393 23.5391 104.463 23.3633 104.604 23.2227C104.745 23.0703 104.92 22.9941 105.131 22.9941H106.608C106.819 22.9941 106.995 23.0703 107.135 23.2227C107.288 23.3633 107.364 23.5391 107.364 23.75V25.2617C107.364 25.4609 107.288 25.6367 107.135 25.7891C106.995 25.9297 106.819 26 106.608 26H105.131C104.92 26 104.745 25.9297 104.604 25.7891C104.463 25.6367 104.393 25.4609 104.393 25.2617ZM104.393 29.0059V27.4941C104.393 27.2832 104.463 27.1016 104.604 26.9492C104.745 26.8086 104.92 26.7383 105.131 26.7383H106.608C106.819 26.7383 106.995 26.8086 107.135 26.9492C107.288 27.1016 107.364 27.2832 107.364 27.4941V29.0059C107.364 29.2051 107.288 29.375 107.135 29.5156C106.995 29.668 106.819 29.7441 106.608 29.7441H105.131C104.92 29.7441 104.745 29.668 104.604 29.5156C104.463 29.375 104.393 29.2051 104.393 29.0059ZM104.393 32.75V31.2383C104.393 31.0273 104.463 30.8516 104.604 30.7109C104.745 30.5703 104.92 30.5 105.131 30.5H106.608C106.819 30.5 106.995 30.5703 107.135 30.7109C107.288 30.8516 107.364 31.0273 107.364 31.2383V32.75C107.364 32.9492 107.288 33.1191 107.135 33.2598C106.995 33.4121 106.819 33.4883 106.608 33.4883H105.131C104.92 33.4883 104.745 33.4121 104.604 33.2598C104.463 33.1191 104.393 32.9492 104.393 32.75ZM100.667 32.75V31.2383C100.667 31.0273 100.737 30.8516 100.877 30.7109C101.03 30.5703 101.206 30.5 101.405 30.5H102.899C103.098 30.5 103.268 30.5703 103.409 30.7109C103.561 30.8516 103.637 31.0273 103.637 31.2383V32.75C103.637 32.9492 103.561 33.1191 103.409 33.2598C103.268 33.4121 103.098 33.4883 102.899 33.4883H101.405C101.206 33.4883 101.03 33.4121 100.877 33.2598C100.737 33.1191 100.667 32.9492 100.667 32.75ZM96.9224 32.75V31.2383C96.9224 31.0273 96.9927 30.8516 97.1333 30.7109C97.2857 30.5703 97.4614 30.5 97.6607 30.5H99.1548C99.354 30.5 99.5239 30.5703 99.6646 30.7109C99.8169 30.8516 99.8931 31.0273 99.8931 31.2383V32.75C99.8931 32.9492 99.8169 33.1191 99.6646 33.2598C99.5239 33.4121 99.354 33.4883 99.1548 33.4883H97.6607C97.4614 33.4883 97.2857 33.4121 97.1333 33.2598C96.9927 33.1191 96.9224 32.9492 96.9224 32.75ZM104.393 14.0117V12.5C104.393 12.3008 104.463 12.1309 104.604 11.9902C104.745 11.8379 104.92 11.7617 105.131 11.7617H106.608C106.819 11.7617 106.995 11.8379 107.135 11.9902C107.288 12.1309 107.364 12.3008 107.364 12.5V14.0117C107.364 14.2227 107.288 14.4043 107.135 14.5566C106.995 14.6973 106.819 14.7676 106.608 14.7676H105.131C104.92 14.7676 104.745 14.6973 104.604 14.5566C104.463 14.4043 104.393 14.2227 104.393 14.0117ZM104.393 10.2676V8.75586C104.393 8.55664 104.463 8.38672 104.604 8.24609C104.745 8.09375 104.92 8.01758 105.131 8.01758H106.608C106.819 8.01758 106.995 8.09375 107.135 8.24609C107.288 8.38672 107.364 8.55664 107.364 8.75586V10.2676C107.364 10.4785 107.288 10.6602 107.135 10.8125C106.995 10.9531 106.819 11.0234 106.608 11.0234H105.131C104.92 11.0234 104.745 10.9531 104.604 10.8125C104.463 10.6602 104.393 10.4785 104.393 10.2676ZM121.145 16.2617V17.7734C121.145 17.9727 121.069 18.1484 120.917 18.3008C120.776 18.4414 120.6 18.5117 120.389 18.5117H118.913C118.702 18.5117 118.526 18.4414 118.385 18.3008C118.245 18.1484 118.174 17.9727 118.174 17.7734V16.2617C118.174 16.0508 118.245 15.875 118.385 15.7344C118.526 15.582 118.702 15.5059 118.913 15.5059H120.389C120.6 15.5059 120.776 15.582 120.917 15.7344C121.069 15.875 121.145 16.0508 121.145 16.2617ZM121.145 12.5176V14.0293C121.145 14.2285 121.069 14.4043 120.917 14.5566C120.776 14.6973 120.6 14.7676 120.389 14.7676H118.913C118.702 14.7676 118.526 14.6973 118.385 14.5566C118.245 14.4043 118.174 14.2285 118.174 14.0293V12.5176C118.174 12.3066 118.245 12.1309 118.385 11.9902C118.526 11.8379 118.702 11.7617 118.913 11.7617H120.389C120.6 11.7617 120.776 11.8379 120.917 11.9902C121.069 12.1309 121.145 12.3066 121.145 12.5176ZM121.145 8.75586V10.2676C121.145 10.4785 121.069 10.6602 120.917 10.8125C120.776 10.9531 120.6 11.0234 120.389 11.0234H118.913C118.702 11.0234 118.526 10.9531 118.385 10.8125C118.245 10.6602 118.174 10.4785 118.174 10.2676V8.75586C118.174 8.55664 118.245 8.38672 118.385 8.24609C118.526 8.09375 118.702 8.01758 118.913 8.01758H120.389C120.6 8.01758 120.776 8.09375 120.917 8.24609C121.069 8.38672 121.145 8.55664 121.145 8.75586ZM121.145 20.0059V21.5176C121.145 21.7168 121.069 21.8926 120.917 22.0449C120.776 22.1855 120.6 22.2559 120.389 22.2559H118.913C118.702 22.2559 118.526 22.1855 118.385 22.0449C118.245 21.8926 118.174 21.7168 118.174 21.5176V20.0059C118.174 19.7949 118.245 19.6191 118.385 19.4785C118.526 19.3262 118.702 19.25 118.913 19.25H120.389C120.6 19.25 120.776 19.3262 120.917 19.4785C121.069 19.6191 121.145 19.7949 121.145 20.0059ZM121.145 23.75V25.2617C121.145 25.4609 121.069 25.6367 120.917 25.7891C120.776 25.9297 120.6 26 120.389 26H118.913C118.702 26 118.526 25.9297 118.385 25.7891C118.245 25.6367 118.174 25.4609 118.174 25.2617V23.75C118.174 23.5391 118.245 23.3633 118.385 23.2227C118.526 23.082 118.702 23.0117 118.913 23.0117H120.389C120.6 23.0117 120.776 23.082 120.917 23.2227C121.069 23.3633 121.145 23.5391 121.145 23.75ZM117.401 8.75586V10.2676C117.401 10.4785 117.325 10.6602 117.172 10.8125C117.032 10.9531 116.856 11.0234 116.645 11.0234H115.168C114.958 11.0234 114.782 10.9531 114.641 10.8125C114.5 10.6602 114.43 10.4785 114.43 10.2676V8.75586C114.43 8.55664 114.5 8.38672 114.641 8.24609C114.782 8.09375 114.958 8.01758 115.168 8.01758H116.645C116.856 8.01758 117.032 8.09375 117.172 8.24609C117.325 8.38672 117.401 8.55664 117.401 8.75586ZM113.674 16.2617V17.7734C113.674 17.9727 113.598 18.1484 113.446 18.3008C113.305 18.4414 113.135 18.5117 112.936 18.5117H111.442C111.243 18.5117 111.067 18.4414 110.915 18.3008C110.774 18.1484 110.704 17.9727 110.704 17.7734V16.2617C110.704 16.0508 110.774 15.875 110.915 15.7344C111.067 15.582 111.243 15.5059 111.442 15.5059H112.936C113.135 15.5059 113.305 15.582 113.446 15.7344C113.598 15.875 113.674 16.0508 113.674 16.2617ZM113.674 12.5176V14.0293C113.674 14.2285 113.598 14.4043 113.446 14.5566C113.305 14.6973 113.135 14.7676 112.936 14.7676H111.442C111.243 14.7676 111.067 14.6973 110.915 14.5566C110.774 14.4043 110.704 14.2285 110.704 14.0293V12.5176C110.704 12.3066 110.774 12.1309 110.915 11.9902C111.067 11.8379 111.243 11.7617 111.442 11.7617H112.936C113.135 11.7617 113.305 11.8379 113.446 11.9902C113.598 12.1309 113.674 12.3066 113.674 12.5176ZM113.674 8.75586V10.2676C113.674 10.4785 113.598 10.6602 113.446 10.8125C113.305 10.9531 113.135 11.0234 112.936 11.0234H111.442C111.243 11.0234 111.067 10.9531 110.915 10.8125C110.774 10.6602 110.704 10.4785 110.704 10.2676V8.75586C110.704 8.55664 110.774 8.38672 110.915 8.24609C111.067 8.09375 111.243 8.01758 111.442 8.01758H112.936C113.135 8.01758 113.305 8.09375 113.446 8.24609C113.598 8.38672 113.674 8.55664 113.674 8.75586ZM113.674 5.01172V6.52344C113.674 6.73438 113.598 6.91602 113.446 7.06836C113.305 7.20898 113.135 7.2793 112.936 7.2793H111.442C111.243 7.2793 111.067 7.20898 110.915 7.06836C110.774 6.91602 110.704 6.73438 110.704 6.52344V5.01172C110.704 4.8125 110.774 4.64258 110.915 4.50195C111.067 4.34961 111.243 4.27344 111.442 4.27344H112.936C113.135 4.27344 113.305 4.34961 113.446 4.50195C113.598 4.64258 113.674 4.8125 113.674 5.01172ZM113.674 1.26758V2.7793C113.674 2.99023 113.598 3.17187 113.446 3.32422C113.305 3.46484 113.135 3.53516 112.936 3.53516H111.442C111.243 3.53516 111.067 3.46484 110.915 3.32422C110.774 3.17187 110.704 2.99023 110.704 2.7793V1.26758C110.704 1.06836 110.774 0.898438 110.915 0.757812C111.067 0.605469 111.243 0.529297 111.442 0.529297H112.936C113.135 0.529297 113.305 0.605469 113.446 0.757812C113.598 0.898438 113.674 1.06836 113.674 1.26758ZM113.674 20.0059V21.5176C113.674 21.7168 113.598 21.8926 113.446 22.0449C113.305 22.1855 113.135 22.2559 112.936 22.2559H111.442C111.243 22.2559 111.067 22.1855 110.915 22.0449C110.774 21.8926 110.704 21.7168 110.704 21.5176V20.0059C110.704 19.7949 110.774 19.6191 110.915 19.4785C111.067 19.3262 111.243 19.25 111.442 19.25H112.936C113.135 19.25 113.305 19.3262 113.446 19.4785C113.598 19.6191 113.674 19.7949 113.674 20.0059ZM113.674 23.75V25.2617C113.674 25.4609 113.598 25.6367 113.446 25.7891C113.305 25.9297 113.135 26 112.936 26H111.442C111.243 26 111.067 25.9297 110.915 25.7891C110.774 25.6367 110.704 25.4609 110.704 25.2617V23.75C110.704 23.5391 110.774 23.3633 110.915 23.2227C111.067 23.082 111.243 23.0117 111.442 23.0117H112.936C113.135 23.0117 113.305 23.082 113.446 23.2227C113.598 23.3633 113.674 23.5391 113.674 23.75ZM131.973 10.2676V8.75586C131.973 8.55664 132.043 8.38672 132.184 8.24609C132.336 8.09375 132.512 8.01758 132.711 8.01758H134.206C134.405 8.01758 134.575 8.09375 134.715 8.24609C134.868 8.38672 134.944 8.55664 134.944 8.75586V10.2676C134.944 10.4785 134.868 10.6602 134.715 10.8125C134.575 10.9531 134.405 11.0234 134.206 11.0234H132.711C132.512 11.0234 132.336 10.9531 132.184 10.8125C132.043 10.6602 131.973 10.4785 131.973 10.2676ZM131.973 25.2617V23.75C131.973 23.5391 132.043 23.3633 132.184 23.2227C132.336 23.082 132.512 23.0117 132.711 23.0117H134.206C134.405 23.0117 134.575 23.082 134.715 23.2227C134.868 23.3633 134.944 23.5391 134.944 23.75V25.2617C134.944 25.4609 134.868 25.6367 134.715 25.7891C134.575 25.9297 134.405 26 134.206 26H132.711C132.512 26 132.336 25.9297 132.184 25.7891C132.043 25.6367 131.973 25.4609 131.973 25.2617ZM124.485 10.2676V8.75586C124.485 8.55664 124.555 8.38672 124.696 8.24609C124.848 8.09375 125.024 8.01758 125.223 8.01758H126.717C126.917 8.01758 127.086 8.09375 127.227 8.24609C127.379 8.38672 127.456 8.55664 127.456 8.75586V10.2676C127.456 10.4785 127.379 10.6602 127.227 10.8125C127.086 10.9531 126.917 11.0234 126.717 11.0234H125.223C125.024 11.0234 124.848 10.9531 124.696 10.8125C124.555 10.6602 124.485 10.4785 124.485 10.2676ZM135.717 10.2676V8.75586C135.717 8.55664 135.788 8.38672 135.928 8.24609C136.081 8.09375 136.256 8.01758 136.456 8.01758H137.95C138.149 8.01758 138.319 8.09375 138.459 8.24609C138.612 8.38672 138.688 8.55664 138.688 8.75586V10.2676C138.688 10.4785 138.612 10.6602 138.459 10.8125C138.319 10.9531 138.149 11.0234 137.95 11.0234H136.456C136.256 11.0234 136.081 10.9531 135.928 10.8125C135.788 10.6602 135.717 10.4785 135.717 10.2676ZM135.717 25.2617V23.75C135.717 23.5391 135.788 23.3633 135.928 23.2227C136.081 23.082 136.256 23.0117 136.456 23.0117H137.95C138.149 23.0117 138.319 23.082 138.459 23.2227C138.612 23.3633 138.688 23.5391 138.688 23.75V25.2617C138.688 25.4609 138.612 25.6367 138.459 25.7891C138.319 25.9297 138.149 26 137.95 26H136.456C136.256 26 136.081 25.9297 135.928 25.7891C135.788 25.6367 135.717 25.4609 135.717 25.2617ZM128.211 10.2676V8.75586C128.211 8.55664 128.282 8.38672 128.422 8.24609C128.563 8.09375 128.739 8.01758 128.95 8.01758H130.426C130.637 8.01758 130.813 8.09375 130.954 8.24609C131.106 8.38672 131.182 8.55664 131.182 8.75586V10.2676C131.182 10.4785 131.106 10.6602 130.954 10.8125C130.813 10.9531 130.637 11.0234 130.426 11.0234H128.95C128.739 11.0234 128.563 10.9531 128.422 10.8125C128.282 10.6602 128.211 10.4785 128.211 10.2676ZM128.211 14.0293V12.5176C128.211 12.3066 128.282 12.1309 128.422 11.9902C128.563 11.8379 128.739 11.7617 128.95 11.7617H130.426C130.637 11.7617 130.813 11.8379 130.954 11.9902C131.106 12.1309 131.182 12.3066 131.182 12.5176V14.0293C131.182 14.2285 131.106 14.4043 130.954 14.5566C130.813 14.6973 130.637 14.7676 130.426 14.7676H128.95C128.739 14.7676 128.563 14.6973 128.422 14.5566C128.282 14.4043 128.211 14.2285 128.211 14.0293ZM128.211 17.7734V16.2617C128.211 16.0508 128.282 15.875 128.422 15.7344C128.563 15.582 128.739 15.5059 128.95 15.5059H130.426C130.637 15.5059 130.813 15.582 130.954 15.7344C131.106 15.875 131.182 16.0508 131.182 16.2617V17.7734C131.182 17.9727 131.106 18.1484 130.954 18.3008C130.813 18.4414 130.637 18.5117 130.426 18.5117H128.95C128.739 18.5117 128.563 18.4414 128.422 18.3008C128.282 18.1484 128.211 17.9727 128.211 17.7734ZM128.211 21.5176V20.0059C128.211 19.7949 128.282 19.6191 128.422 19.4785C128.563 19.3262 128.739 19.25 128.95 19.25H130.426C130.637 19.25 130.813 19.3262 130.954 19.4785C131.106 19.6191 131.182 19.7949 131.182 20.0059V21.5176C131.182 21.7168 131.106 21.8926 130.954 22.0449C130.813 22.1855 130.637 22.2559 130.426 22.2559H128.95C128.739 22.2559 128.563 22.1855 128.422 22.0449C128.282 21.8926 128.211 21.7168 128.211 21.5176ZM128.211 25.2617V23.75C128.211 23.5391 128.282 23.3633 128.422 23.2227C128.563 23.082 128.739 23.0117 128.95 23.0117H130.426C130.637 23.0117 130.813 23.082 130.954 23.2227C131.106 23.3633 131.182 23.5391 131.182 23.75V25.2617C131.182 25.4609 131.106 25.6367 130.954 25.7891C130.813 25.9297 130.637 26 130.426 26H128.95C128.739 26 128.563 25.9297 128.422 25.7891C128.282 25.6367 128.211 25.4609 128.211 25.2617ZM128.211 6.52344V5.01172C128.211 4.8125 128.282 4.64258 128.422 4.50195C128.563 4.34961 128.739 4.27344 128.95 4.27344H130.426C130.637 4.27344 130.813 4.34961 130.954 4.50195C131.106 4.64258 131.182 4.8125 131.182 5.01172V6.52344C131.182 6.73438 131.106 6.91602 130.954 7.06836C130.813 7.20898 130.637 7.2793 130.426 7.2793H128.95C128.739 7.2793 128.563 7.20898 128.422 7.06836C128.282 6.91602 128.211 6.73438 128.211 6.52344Z" fill="#FF6800"/>
</svg>
